<svg xmlns="http://www.w3.org/2000/svg" width="256" height="256" viewBox="0 0 100 100"><rect width="100" height="100" rx="20" fill="#05021f"></rect><path d="M60.97 50.05L60.97 50.05Q60.97 40.83 56.46 36.32Q51.95 31.81 44.73 31.81L44.73 31.81Q43.02 31.81 41.50 31.90Q39.98 32.00 38.46 32.28L38.46 32.28L38.46 67.62Q39.69 67.91 41.45 68.05Q43.21 68.19 44.82 68.19L44.82 68.19Q52.23 68.19 56.60 63.68Q60.97 59.17 60.97 50.05ZM76.36 49.86L76.36 49.86Q76.36 57.46 74.08 63.16Q71.80 68.86 67.67 72.66Q63.54 76.46 57.70 78.36Q51.85 80.26 44.73 80.26L44.73 80.26Q43.11 80.26 41.07 80.16Q39.03 80.07 36.89 79.83Q34.75 79.59 32.57 79.16Q30.38 78.74 28.58 78.07L28.58 78.07Q23.64 76.27 23.64 71.61L23.64 71.61L23.64 26.39Q23.64 24.49 24.63 23.45Q25.63 22.40 27.53 21.74L27.53 21.74Q31.43 20.50 35.80 20.12Q40.17 19.74 43.78 19.74L43.78 19.74Q51.09 19.74 57.08 21.55Q63.06 23.35 67.34 27.10Q71.61 30.86 73.99 36.51Q76.36 42.16 76.36 49.86Z" fill="#fff"></path></svg>